<svg width="70" height="70" viewBox="0 0 68 69" fill="none" xmlns="http://www.w3.org/2000/svg">
<path d="M11.3198 27.9176C15.5781 27.4858 39.1115 22.1399 36.8534 33.7528C36.0609 37.8289 31.7789 42.475 27.6361 43.2675C23.4268 44.0728 17.1443 41.5893 17.378 36.5775C17.5422 33.0569 19.3914 29.4059 20.8345 26.2823C22.2162 23.2915 24.1626 17.9832 27.9334 17.1764C31.7323 16.3635 36.1716 20.1476 38.5259 22.5656C41.739 25.8655 44.7308 30.5856 44.101 35.4253C43.5911 39.3431 40.3953 41.2339 36.8534 42.0038C30.2637 43.4364 23.1521 43.4431 16.4488 43.8993C12.822 44.1462 6.36431 45.5738 3.18026 42.8215C0.403525 40.4213 0.399698 35.7821 0.987416 32.5263C3.68637 17.5749 19.1065 9.65565 33.0996 15.3552C50.3609 22.3859 60.012 41.3214 56.2174 59.5094C53.6861 71.6419 37.2279 67.897 29.0856 64.5641C22.7276 61.9616 16.4693 57.5993 13.81 50.9982C10.69 43.2538 11.5175 33.5774 13.0295 25.6133C14.5475 17.6173 17.3283 8.46343 22.1725 1.75213C25.2424 -2.50096 28.803 7.02304 29.6059 8.59083C33.9155 17.0062 37.5842 26.1096 39.5294 35.3881C40.4527 39.7921 41.9468 47.084 37.8198 50.5522C32.9359 54.6565 20.1295 55.6679 15.594 50.5522C8.46603 42.5125 23.8979 29.5921 29.2714 25.5761C35.4483 20.9597 42.405 18.6762 50.122 18.7002C53.886 18.7119 64.7643 18.8949 67.1444 23.0859C69.537 27.299 48.4168 28.213 48.115 28.2149C42.9419 28.2481 37.4909 27.643 32.4677 26.3194C23.5755 23.9764 31.4513 25.4844 24.3654 22.9001" stroke="#3E00EF" stroke-linecap="round" stroke-linejoin="round"/>
</svg>
