<svg width="70" height="70" viewBox="0 0 69 61" fill="none" xmlns="http://www.w3.org/2000/svg">
<path d="M12.1814 43.735C14.8871 40.4186 27.7476 19.9979 34.3625 29.8061C36.6843 33.2488 36.9417 39.5619 34.5727 43.0517C32.1657 46.5975 25.9673 49.2838 22.5886 45.5747C20.2153 42.9692 18.9413 39.0799 17.7529 35.8507C16.6151 32.7589 14.238 27.6291 16.3338 24.3923C18.4452 21.1313 24.26 20.6679 27.6346 20.7129C32.24 20.7743 37.6931 21.9964 40.6699 25.864C43.0797 28.9948 42.1569 32.5916 40.1969 35.6405C36.5502 41.3131 31.5262 46.3466 27.109 51.4091C24.719 54.1481 21.1622 59.7239 16.9645 60.0292C13.3038 60.2954 10.0207 57.0177 8.13411 54.3C-0.529641 41.8193 4.77423 25.3159 18.6991 19.4514C35.8762 12.2173 56.0899 18.7823 66.2675 34.3265C73.0567 44.6953 58.7709 53.6849 50.6567 57.0857C44.3206 59.7413 36.8107 61.0819 30.2627 58.2947C22.5804 55.0247 16.3233 47.5973 11.7609 40.8967C7.18024 34.1693 2.67384 25.7302 1.35363 17.5592C0.516989 12.3811 9.76919 16.5978 11.4455 17.1387C20.4434 20.0419 29.4747 23.8849 37.4111 29.0703C41.178 31.5314 47.3906 35.6312 46.9248 41.0018C46.3735 47.3574 38.0332 57.128 31.2088 56.7178C20.4836 56.0731 22.2595 36.025 23.2194 29.3856C24.3228 21.7536 27.6273 15.2198 33.101 9.78005C35.7708 7.1268 43.5923 -0.435992 48.2388 0.844536C52.9097 2.13179 38.6218 17.7124 38.4098 17.9271C34.7753 21.6085 30.4929 25.0351 26.0052 27.6511C18.0606 32.2821 24.6959 27.7793 17.8581 30.9625" stroke="#00E5E5" stroke-linecap="round" stroke-linejoin="round"/>
</svg>
