<svg width="70" height="70" viewBox="0 0 69 68" fill="none" xmlns="http://www.w3.org/2000/svg">
<path d="M28.2179 56.7246C27.7861 52.4663 22.4402 28.9329 34.0531 31.191C38.1292 31.9836 42.7752 36.2656 43.5678 40.4084C44.373 44.6177 41.8896 50.9001 36.8777 50.6664C33.3572 50.5023 29.7062 48.653 26.5825 47.2099C23.5917 45.8282 18.2835 43.8818 17.4766 40.111C16.6638 36.3122 20.4479 31.8728 22.8658 29.5185C26.1658 26.3054 30.8858 23.3136 35.7256 23.9435C39.6434 24.4533 41.5341 27.6492 42.3041 31.191C43.7367 37.7808 43.7434 44.8924 44.1996 51.5956C44.4465 55.2224 45.8741 61.6801 43.1218 64.8642C40.7215 67.6409 36.0823 67.6447 32.8266 67.057C17.8752 64.3581 9.95592 48.938 15.6555 34.9449C22.6862 17.6835 41.6216 8.03243 59.8097 11.8271C71.9422 14.3583 68.1973 30.8165 64.8644 38.9589C62.2619 45.3169 57.8995 51.5751 51.2985 54.2345C43.5541 57.3544 33.8777 56.5269 25.9135 55.015C17.9175 53.497 8.76369 50.7162 2.05239 45.8719C-2.2007 42.802 7.3233 39.2414 8.8911 38.4385C17.3065 34.1289 26.4099 30.4602 35.6884 28.515C40.0923 27.5917 47.3843 26.0977 50.8525 30.2247C54.9567 35.1085 55.9681 47.9149 50.8525 52.4504C42.8128 59.5784 29.8923 44.1465 25.8763 38.773C21.2599 32.5962 18.9764 25.6394 19.0005 17.9224C19.0122 14.1584 19.1951 3.2801 23.3862 0.900008C27.5992 -1.49258 28.5133 19.6276 28.5152 19.9294C28.5484 25.1026 27.9432 30.5536 26.6197 35.5767C24.2766 44.469 25.7846 36.5931 23.2003 43.6791" stroke="#0060EF" stroke-linecap="round" stroke-linejoin="round"/>
</svg>
