<svg width="24" height="24" viewBox="0 0 24 24" fill="none" xmlns="http://www.w3.org/2000/svg">
<path fill-rule="evenodd" clip-rule="evenodd" d="M11.2208 5.90411C11.5076 6.10642 11.7702 6.33878 12 6.59717C12.2298 6.33878 12.4924 6.10642 12.7792 5.90411C13.5904 5.3318 14.5952 5 15.6 5C18.08 5 20 6.82583 20 9.18483C20 12.0758 17.28 14.4348 13.12 17.9348L12 19L10.88 17.9348C6.72 14.4348 4 12.0758 4 9.18483C4 6.82583 5.92 5 8.4 5C9.40481 5 10.4096 5.3318 11.2208 5.90411ZM12 16.2634C14.0313 14.5529 15.5604 13.2345 16.6067 12.0238C17.6623 10.8023 18 9.9424 18 9.18483C18 8.02379 17.0712 7 15.6 7C14.8005 7 13.9879 7.37155 13.4944 7.92639L12 9.60643L10.5056 7.92639C10.0121 7.37155 9.1995 7 8.4 7C6.92881 7 6 8.02379 6 9.18483C6 9.9424 6.33768 10.8023 7.39325 12.0238C8.43956 13.2345 9.96869 14.5529 12 16.2634Z" fill="#717375"/>
</svg>
