<svg width="56" height="56" viewBox="0 0 56 56" fill="none" xmlns="http://www.w3.org/2000/svg">
<path fill-rule="evenodd" clip-rule="evenodd" d="M33.3504 48.6881C34.6939 45.8407 35.0136 39.3566 33.1206 35.9137L42.9049 35.9142C44.1475 35.9143 45.1549 34.7671 45.1549 33.352C45.1549 33.2654 45.151 33.1788 45.1433 33.0926C44.8462 29.7672 44.3585 26.39 43.6803 22.9612C42.9723 19.3817 42.2164 16.2974 41.4127 13.7083C41.0949 12.6845 40.2449 12 39.2913 12H23.3504C22.2459 12 21.3504 13.0197 21.3504 14.2775V34.2061C21.3504 34.3171 21.3597 34.4256 21.3775 34.5307L21.3805 34.5665C21.4909 35.5646 21.8864 35.701 22.2535 36.0339C23.8393 37.4719 28.4389 42.1497 28.818 49.2822C28.797 51.8076 32.3147 51.2558 33.3504 48.6881ZM18.3504 35.9142C19.1789 35.9142 19.8504 35.1495 19.8504 34.2061V13.7082C19.8504 12.7648 19.1789 12 18.3504 12H14.2144C13.441 12 12.7945 12.6695 12.7211 13.5462L11.0069 34.0441C10.9283 34.9833 11.5332 35.8171 12.3579 35.9065C12.4052 35.9117 12.4526 35.9142 12.5001 35.9142H18.3504Z" fill="url(#paint0_linear_1163_40)"/>
<defs>
<linearGradient id="paint0_linear_1163_40" x1="18.7722" y1="40.3832" x2="35.1596" y2="19.6186" gradientUnits="userSpaceOnUse">
<stop stop-color="#E4E7E9"/>
<stop offset="1" stop-color="#E1E9ED"/>
</linearGradient>
</defs>
</svg>
