<svg width="56" height="56" viewBox="0 0 56 56" fill="none" xmlns="http://www.w3.org/2000/svg">
<path fill-rule="evenodd" clip-rule="evenodd" d="M33.3504 7.23094C34.6939 10.0783 35.0136 16.5624 33.1206 20.0053L42.9049 20.0048C44.1475 20.0048 45.1549 21.1519 45.1549 22.567C45.1549 22.6536 45.151 22.7402 45.1434 22.8264C44.8462 26.1518 44.3585 29.529 43.6803 32.9578C42.9723 36.5372 42.2164 39.6215 41.4127 42.2107C41.0949 43.2345 40.2449 43.9189 39.2913 43.9189H23.3505C22.2459 43.9189 21.3505 42.8993 21.3505 41.6414V21.7129C21.3505 21.6019 21.3598 21.4934 21.3775 21.3883L21.3805 21.3525C21.4909 20.3545 21.8864 20.218 22.2535 19.8851C23.8393 18.4471 28.4389 13.7693 28.818 6.63685C28.797 4.11145 32.3147 4.66324 33.3504 7.23094ZM18.3505 20.0048C19.1789 20.0048 19.8505 20.7695 19.8505 21.7129V42.2108C19.8505 43.1542 19.1789 43.9189 18.3505 43.9189H14.2144C13.441 43.9189 12.7945 43.2494 12.7211 42.3727L11.0069 21.8749C10.9283 20.9357 11.5332 20.1019 12.3579 20.0125C12.4052 20.0073 12.4526 20.0048 12.5001 20.0048H18.3505Z" fill="url(#paint0_linear_1163_127)"/>
<defs>
<linearGradient id="paint0_linear_1163_127" x1="18.0879" y1="17.9828" x2="40.4674" y2="40.6214" gradientUnits="userSpaceOnUse">
<stop stop-color="#18E1AD"/>
<stop offset="1" stop-color="#00BE71"/>
</linearGradient>
</defs>
</svg>
