<svg width="35" height="48" viewBox="0 0 35 48" fill="none" xmlns="http://www.w3.org/2000/svg">
<path d="M5.399 31.68V42H4.439V31.68H0.695V30.832H9.143V31.68H5.399ZM10.238 33.808H11.15V36.96H13.422C14.254 36.96 14.8993 37.1893 15.358 37.648C15.8273 38.096 16.062 38.7093 16.062 39.488C16.062 40.2667 15.8327 40.88 15.374 41.328C14.9153 41.776 14.27 42 13.438 42H10.238V33.808ZM13.326 41.2C13.902 41.2 14.334 41.072 14.622 40.816C14.9207 40.56 15.07 40.208 15.07 39.76V39.184C15.07 38.736 14.9207 38.3893 14.622 38.144C14.334 37.888 13.902 37.76 13.326 37.76H11.15V41.2H13.326ZM17.614 33.808H18.526V42H17.614V33.808ZM21.5036 33.808H22.4156V37.344H24.1756L26.0476 34.48C26.229 34.2027 26.389 34.0213 26.5276 33.936C26.677 33.8507 26.8636 33.808 27.0876 33.808H27.8396V34.608H26.8956L25.3276 37.008C25.1783 37.2427 25.0503 37.4027 24.9436 37.488C24.8476 37.5733 24.7143 37.6427 24.5436 37.696V37.76C24.725 37.792 24.8796 37.8613 25.0076 37.968C25.1463 38.064 25.301 38.256 25.4716 38.544L27.0396 41.2H27.9836V42H27.0716C26.869 42 26.6876 41.952 26.5276 41.856C26.3676 41.76 26.2076 41.5733 26.0476 41.296L24.1756 38.128H22.4156V42H21.5036V33.808Z" fill="#717375"/>
<path d="M15.0517 22.5389C15.6644 22.5022 22.4302 15.6597 22.8805 15.169C23.9259 14.0298 24.9108 12.7274 25.675 11.3793C26.6553 9.65002 28.0069 8.00367 28.9532 6.16919" stroke="#1F2021" stroke-linecap="round" stroke-linejoin="round"/>
<path d="M29.2199 5.97452C29.264 7.19534 29.4463 8.36779 29.6035 9.5769" stroke="#1F2021" stroke-linecap="round" stroke-linejoin="round"/>
<path d="M28.9891 5.93848C27.6286 5.72658 26.5238 5.8308 25.1921 6.05563" stroke="#1F2021" stroke-linecap="round" stroke-linejoin="round"/>
</svg>
