<svg width="40" height="40" viewBox="0 0 35 39" fill="none" xmlns="http://www.w3.org/2000/svg">
<path fill-rule="evenodd" clip-rule="evenodd" d="M22.3504 36.6881C23.6939 33.8407 24.0136 27.3566 22.1206 23.9137L31.9049 23.9142C33.1475 23.9143 34.1549 22.7671 34.1549 21.352C34.1549 21.2654 34.151 21.1788 34.1433 21.0926C33.8462 17.7672 33.3585 14.39 32.6803 10.9612C31.9723 7.38172 31.2164 4.29742 30.4127 1.70827C30.0949 0.684482 29.2449 0 28.2913 0H12.3504C11.2459 0 10.3504 1.01969 10.3504 2.27755V22.2061C10.3504 22.3171 10.3597 22.4256 10.3775 22.5307L10.3805 22.5665C10.4909 23.5646 10.8864 23.701 11.2535 24.0339C12.8393 25.4719 17.4389 30.1497 17.818 37.2822C17.797 39.8076 21.3147 39.2558 22.3504 36.6881ZM7.35045 23.9142C8.17888 23.9142 8.85045 23.1495 8.85045 22.2061V1.70816C8.85045 0.764766 8.17888 0 7.35045 0H3.21438C2.44104 0 1.79446 0.66952 1.72114 1.5462L0.00686021 22.0441C-0.0716798 22.9833 0.53319 23.8171 1.35789 23.9065C1.40515 23.9117 1.45261 23.9142 1.50009 23.9142H7.35045Z" fill="url(#paint0_linear_943_37)"/>
<defs>
<linearGradient id="paint0_linear_943_37" x1="7.77222" y1="28.3832" x2="24.1596" y2="7.61857" gradientUnits="userSpaceOnUse">
<stop stop-color="#E4E7E9"/>
<stop offset="1" stop-color="#E1E9ED"/>
</linearGradient>
</defs>
</svg>
