<svg width="40" height="40" viewBox="0 0 35 39" fill="none" xmlns="http://www.w3.org/2000/svg">
<path fill-rule="evenodd" clip-rule="evenodd" d="M22.3504 2.23094C23.6939 5.07831 24.0136 11.5624 22.1206 15.0053L31.9049 15.0048C33.1475 15.0048 34.1549 16.1519 34.1549 17.567C34.1549 17.6536 34.151 17.7402 34.1434 17.8264C33.8462 21.1518 33.3585 24.529 32.6803 27.9578C31.9723 31.5372 31.2164 34.6215 30.4127 37.2107C30.0949 38.2345 29.2449 38.9189 28.2913 38.9189H12.3505C11.2459 38.9189 10.3505 37.8993 10.3505 36.6414V16.7129C10.3505 16.6019 10.3598 16.4934 10.3775 16.3883L10.3805 16.3525C10.4909 15.3545 10.8864 15.218 11.2535 14.8851C12.8393 13.4471 17.4389 8.7693 17.818 1.63685C17.797 -0.88855 21.3147 -0.336759 22.3504 2.23094ZM7.35045 15.0048C8.17888 15.0048 8.85045 15.7695 8.85045 16.7129V37.2108C8.85045 38.1542 8.17888 38.9189 7.35045 38.9189H3.21439C2.44105 38.9189 1.79447 38.2494 1.72115 37.3727L0.00686022 16.8749C-0.0716797 15.9357 0.533188 15.1019 1.35789 15.0125C1.40516 15.0073 1.45262 15.0048 1.5001 15.0048H7.35045Z" fill="url(#paint0_linear_943_120)"/>
<defs>
<linearGradient id="paint0_linear_943_120" x1="7.08787" y1="12.9828" x2="29.4674" y2="35.6214" gradientUnits="userSpaceOnUse">
<stop stop-color="#18E1AD"/>
<stop offset="1" stop-color="#00BE71"/>
</linearGradient>
</defs>
</svg>
