<svg width="232" height="76" viewBox="0 0 232 76" fill="none" xmlns="http://www.w3.org/2000/svg">
<path d="M88.536 39.64H95.592V39.28C95.592 37.552 95.192 36.2 94.392 35.224C93.592 34.248 92.424 33.76 90.888 33.76C89.784 33.76 88.88 34.024 88.176 34.552C87.488 35.064 86.976 35.752 86.64 36.616L85.008 35.632C85.536 34.464 86.28 33.56 87.24 32.92C88.216 32.28 89.432 31.96 90.888 31.96C93.096 31.96 94.792 32.688 95.976 34.144C97.16 35.584 97.752 37.712 97.752 40.528C97.752 43.344 97.16 45.512 95.976 47.032C94.792 48.536 93.096 49.288 90.888 49.288C89.4 49.288 88.16 48.952 87.168 48.28C86.176 47.592 85.416 46.656 84.888 45.472L86.496 44.464C86.832 45.376 87.36 46.112 88.08 46.672C88.8 47.216 89.736 47.488 90.888 47.488C91.656 47.488 92.328 47.352 92.904 47.08C93.496 46.808 93.984 46.424 94.368 45.928C94.768 45.416 95.072 44.808 95.28 44.104C95.488 43.4 95.592 42.616 95.592 41.752V41.416H88.536V39.64ZM101.181 36.616H103.053V43.48L102.861 46.456H102.957L104.493 43.816L109.437 36.616H111.213V49H109.341V42.136L109.533 39.16H109.437L107.901 41.8L102.957 49H101.181V36.616ZM106.245 34.696C105.381 34.696 104.693 34.528 104.181 34.192C103.669 33.84 103.261 33.384 102.957 32.824L102.477 31.912L104.157 31.168L104.997 33.136C105.189 33.184 105.397 33.224 105.621 33.256C105.845 33.272 106.053 33.28 106.245 33.28C106.437 33.28 106.645 33.272 106.869 33.256C107.093 33.224 107.301 33.184 107.493 33.136L108.333 31.168L110.013 31.912L109.533 32.824C109.229 33.384 108.821 33.84 108.309 34.192C107.797 34.528 107.109 34.696 106.245 34.696ZM125.97 49L124.29 44.056H117.522L115.842 49H113.802L119.658 32.248H122.226L128.082 49H125.97ZM120.954 34.12H120.834L118.002 42.28H123.786L120.954 34.12ZM130.665 36.616H132.537V43.48L132.345 46.456H132.441L133.977 43.816L138.921 36.616H140.697V49H138.825V42.136L139.017 39.16H138.921L137.385 41.8L132.441 49H130.665V36.616ZM135.729 34.696C134.865 34.696 134.177 34.528 133.665 34.192C133.153 33.84 132.745 33.384 132.441 32.824L131.961 31.912L133.641 31.168L134.481 33.136C134.673 33.184 134.881 33.224 135.105 33.256C135.329 33.272 135.537 33.28 135.729 33.28C135.921 33.28 136.129 33.272 136.353 33.256C136.577 33.224 136.785 33.184 136.977 33.136L137.817 31.168L139.497 31.912L139.017 32.824C138.713 33.384 138.305 33.84 137.793 34.192C137.281 34.528 136.593 34.696 135.729 34.696ZM144.39 42.736V40.672H150.654V42.736H144.39ZM163.36 49C162.64 49 162.12 48.808 161.8 48.424C161.496 48.04 161.304 47.56 161.224 46.984H161.104C160.832 47.752 160.384 48.328 159.76 48.712C159.136 49.096 158.392 49.288 157.528 49.288C156.216 49.288 155.192 48.952 154.456 48.28C153.736 47.608 153.376 46.696 153.376 45.544C153.376 44.376 153.8 43.48 154.648 42.856C155.512 42.232 156.848 41.92 158.656 41.92H161.104V40.696C161.104 39.816 160.864 39.144 160.384 38.68C159.904 38.216 159.168 37.984 158.176 37.984C157.424 37.984 156.792 38.152 156.28 38.488C155.784 38.824 155.368 39.272 155.032 39.832L153.88 38.752C154.216 38.08 154.752 37.512 155.488 37.048C156.224 36.568 157.152 36.328 158.272 36.328C159.776 36.328 160.944 36.696 161.776 37.432C162.608 38.168 163.024 39.192 163.024 40.504V47.32H164.44V49H163.36ZM157.84 47.656C158.32 47.656 158.76 47.6 159.16 47.488C159.56 47.376 159.904 47.216 160.192 47.008C160.48 46.8 160.704 46.56 160.864 46.288C161.024 46.016 161.104 45.72 161.104 45.4V43.36H158.56C157.456 43.36 156.648 43.52 156.136 43.84C155.64 44.16 155.392 44.624 155.392 45.232V45.736C155.392 46.344 155.608 46.816 156.04 47.152C156.488 47.488 157.088 47.656 157.84 47.656ZM167.181 36.616H169.101V38.632H169.197C169.517 37.848 169.981 37.272 170.589 36.904C171.213 36.52 171.957 36.328 172.821 36.328C173.589 36.328 174.285 36.48 174.909 36.784C175.533 37.088 176.061 37.52 176.493 38.08C176.941 38.64 177.277 39.32 177.501 40.12C177.741 40.92 177.861 41.816 177.861 42.808C177.861 43.8 177.741 44.696 177.501 45.496C177.277 46.296 176.941 46.976 176.493 47.536C176.061 48.096 175.533 48.528 174.909 48.832C174.285 49.136 173.589 49.288 172.821 49.288C171.141 49.288 169.933 48.52 169.197 46.984H169.101V53.8H167.181V36.616ZM172.293 47.56C173.381 47.56 174.237 47.224 174.861 46.552C175.485 45.864 175.797 44.968 175.797 43.864V41.752C175.797 40.648 175.485 39.76 174.861 39.088C174.237 38.4 173.381 38.056 172.293 38.056C171.861 38.056 171.445 38.12 171.045 38.248C170.661 38.36 170.325 38.52 170.037 38.728C169.749 38.936 169.517 39.192 169.341 39.496C169.181 39.784 169.101 40.096 169.101 40.432V45.04C169.101 45.44 169.181 45.8 169.341 46.12C169.517 46.424 169.749 46.688 170.037 46.912C170.325 47.12 170.661 47.28 171.045 47.392C171.445 47.504 171.861 47.56 172.293 47.56ZM183.485 38.296H179.261V36.616H189.629V38.296H185.405V49H183.485V38.296ZM189.661 47.32H191.077C191.573 46.52 191.973 45.52 192.277 44.32C192.581 43.12 192.733 41.744 192.733 40.192V36.616H201.109V47.32H203.173V52.36H201.421V49H191.413V52.36H189.661V47.32ZM199.189 47.32V38.296H194.557V40.288C194.557 41.936 194.413 43.344 194.125 44.512C193.853 45.664 193.525 46.6 193.141 47.32H199.189ZM205.829 36.616H207.701V43.48L207.509 46.456H207.605L209.141 43.816L214.085 36.616H215.861V49H213.989V42.136L214.181 39.16H214.085L212.549 41.8L207.605 49H205.829V36.616ZM219.938 36.616H221.858V38.632H221.954C222.274 37.848 222.738 37.272 223.346 36.904C223.97 36.52 224.714 36.328 225.578 36.328C226.346 36.328 227.042 36.48 227.666 36.784C228.29 37.088 228.818 37.52 229.25 38.08C229.698 38.64 230.034 39.32 230.258 40.12C230.498 40.92 230.618 41.816 230.618 42.808C230.618 43.8 230.498 44.696 230.258 45.496C230.034 46.296 229.698 46.976 229.25 47.536C228.818 48.096 228.29 48.528 227.666 48.832C227.042 49.136 226.346 49.288 225.578 49.288C223.898 49.288 222.69 48.52 221.954 46.984H221.858V53.8H219.938V36.616ZM225.05 47.56C226.138 47.56 226.994 47.224 227.618 46.552C228.242 45.864 228.554 44.968 228.554 43.864V41.752C228.554 40.648 228.242 39.76 227.618 39.088C226.994 38.4 226.138 38.056 225.05 38.056C224.618 38.056 224.202 38.12 223.802 38.248C223.418 38.36 223.082 38.52 222.794 38.728C222.506 38.936 222.274 39.192 222.098 39.496C221.938 39.784 221.858 40.096 221.858 40.432V45.04C221.858 45.44 221.938 45.8 222.098 46.12C222.274 46.424 222.506 46.688 222.794 46.912C223.082 47.12 223.418 47.28 223.802 47.392C224.202 47.504 224.618 47.56 225.05 47.56Z" fill="#3E00EF"/>
<path d="M25.3094 15.8811C28.6258 18.5869 49.0465 31.4474 39.2383 38.0622C35.7956 40.384 29.4825 40.6415 25.9927 38.2725C22.4469 35.8655 19.7606 29.667 23.4697 26.2884C26.0752 23.9151 29.9645 22.641 33.1937 21.4527C36.2855 20.3149 41.4153 17.9377 44.6522 20.0335C47.9132 22.1449 48.3765 27.9598 48.3315 31.3343C48.2701 35.9397 47.048 41.3928 43.1804 44.3697C40.0496 46.7795 36.4528 45.8566 33.4039 43.8966C27.7313 40.2499 22.6979 35.226 17.6354 30.8087C14.8963 28.4187 9.32051 24.8619 9.01522 20.6642C8.74899 17.0036 12.0267 13.7204 14.7445 11.8339C27.2251 3.1701 43.7286 8.47397 49.593 22.3988C56.8271 39.5759 50.2621 59.7896 34.718 69.9673C24.3492 76.7564 15.3595 62.4706 11.9587 54.3564C9.30315 48.0204 7.96254 40.5105 10.7498 33.9624C14.0198 26.2802 21.4471 20.023 28.1477 15.4606C34.8751 10.88 43.3142 6.37357 51.4852 5.05337C56.6634 4.21673 52.4466 13.4689 51.9057 15.1452C49.0025 24.1432 45.1595 33.1744 39.9742 41.1108C37.513 44.8777 33.4133 51.0903 28.0426 50.6245C21.6871 50.0733 11.9164 41.7329 12.3266 34.9085C12.9713 24.1834 33.0194 25.9592 39.6588 26.9191C47.2908 28.0225 53.8246 31.327 59.2644 36.8007C61.9176 39.4706 69.4804 47.2921 68.1999 51.9386C66.9126 56.6095 51.3321 42.3215 51.1173 42.1095C47.4359 38.475 44.0093 34.1927 41.3933 29.7049C36.7623 21.7603 41.2651 28.3957 38.0819 21.5578" stroke="#3E00EF" stroke-linecap="round" stroke-linejoin="round"/>
</svg>
