<svg width="245" height="47" viewBox="0 0 245 47" fill="none" xmlns="http://www.w3.org/2000/svg">
<path d="M2.61056 40.152H4.17856L4.81856 38.552L0.610563 29.832H1.65056L4.48256 35.72L5.21856 37.368H5.28256L5.90656 35.688L8.24256 29.832H9.23456L5.15456 40.008C4.99456 40.4027 4.8079 40.6693 4.59456 40.808C4.38123 40.936 4.06656 41 3.65056 41H2.61056V40.152ZM14.8864 32.808H15.7984V36.344H20.3424V32.808H21.2544V41H20.3424V37.144H15.7984V41H14.8864V32.808ZM29.8466 41C29.4946 41 29.2386 40.9093 29.0786 40.728C28.9186 40.5467 28.8279 40.3013 28.8066 39.992V39.704H28.7266C28.5452 40.1627 28.2466 40.5253 27.8306 40.792C27.4146 41.0587 26.8866 41.192 26.2466 41.192C25.3826 41.192 24.7159 40.984 24.2466 40.568C23.7772 40.1413 23.5426 39.544 23.5426 38.776C23.5426 38.0507 23.7986 37.4747 24.3106 37.048C24.8332 36.6213 25.6866 36.408 26.8706 36.408H28.7586V35.448C28.7586 34.0933 28.0599 33.416 26.6626 33.416C26.1186 33.416 25.6652 33.5333 25.3026 33.768C24.9399 33.992 24.6466 34.3173 24.4226 34.744L23.8466 34.264C24.0706 33.784 24.4119 33.3893 24.8706 33.08C25.3399 32.7707 25.9479 32.616 26.6946 32.616C27.6546 32.616 28.3906 32.856 28.9026 33.336C29.4146 33.816 29.6706 34.488 29.6706 35.352V40.2H30.7746V41H29.8466ZM26.3746 40.408C26.7052 40.408 27.0146 40.3653 27.3026 40.28C27.5906 40.1947 27.8412 40.0773 28.0546 39.928C28.2786 39.768 28.4492 39.5813 28.5666 39.368C28.6946 39.144 28.7586 38.8933 28.7586 38.616V37.096H26.8386C26.0172 37.096 25.4199 37.2293 25.0466 37.496C24.6839 37.752 24.5026 38.1093 24.5026 38.568V38.952C24.5026 39.432 24.6732 39.7947 25.0146 40.04C25.3559 40.2853 25.8092 40.408 26.3746 40.408ZM35.5321 41.192C34.4014 41.192 33.5267 40.8187 32.9081 40.072C32.3001 39.3253 31.9961 38.2693 31.9961 36.904C31.9961 35.5387 32.3001 34.4827 32.9081 33.736C33.5267 32.9893 34.4014 32.616 35.5321 32.616C36.2894 32.616 36.9027 32.7813 37.3721 33.112C37.8414 33.4427 38.1987 33.88 38.4441 34.424L37.6761 34.808C37.4841 34.36 37.2121 34.0187 36.8601 33.784C36.5187 33.5493 36.0761 33.432 35.5321 33.432C34.7001 33.432 34.0654 33.6987 33.6281 34.232C33.1907 34.7653 32.9721 35.464 32.9721 36.328V37.48C32.9721 38.344 33.1907 39.0427 33.6281 39.576C34.0654 40.1093 34.7001 40.376 35.5321 40.376C36.0974 40.376 36.5721 40.2533 36.9561 40.008C37.3401 39.7627 37.6494 39.4107 37.8841 38.952L38.5561 39.4C38.2894 39.944 37.9054 40.3813 37.4041 40.712C36.9134 41.032 36.2894 41.192 35.5321 41.192ZM42.9948 40.2H43.8908C44.2641 39.624 44.5575 38.9147 44.7708 38.072C44.9841 37.2293 45.0908 36.2747 45.0908 35.208V32.808H50.2908V40.2H51.5868V43.24H50.7388V41H43.8428V43.24H42.9948V40.2ZM49.3788 40.2V33.608H45.9708V35.24C45.9708 36.3707 45.8641 37.352 45.6508 38.184C45.4375 39.016 45.1761 39.688 44.8668 40.2H49.3788ZM59.2528 41C58.9008 41 58.6448 40.9093 58.4848 40.728C58.3248 40.5467 58.2341 40.3013 58.2128 39.992V39.704H58.1328C57.9515 40.1627 57.6528 40.5253 57.2368 40.792C56.8208 41.0587 56.2928 41.192 55.6528 41.192C54.7888 41.192 54.1221 40.984 53.6528 40.568C53.1835 40.1413 52.9488 39.544 52.9488 38.776C52.9488 38.0507 53.2048 37.4747 53.7168 37.048C54.2395 36.6213 55.0928 36.408 56.2768 36.408H58.1648V35.448C58.1648 34.0933 57.4661 33.416 56.0688 33.416C55.5248 33.416 55.0715 33.5333 54.7088 33.768C54.3461 33.992 54.0528 34.3173 53.8288 34.744L53.2528 34.264C53.4768 33.784 53.8181 33.3893 54.2768 33.08C54.7461 32.7707 55.3541 32.616 56.1008 32.616C57.0608 32.616 57.7968 32.856 58.3088 33.336C58.8208 33.816 59.0768 34.488 59.0768 35.352V40.2H60.1808V41H59.2528ZM55.7808 40.408C56.1115 40.408 56.4208 40.3653 56.7088 40.28C56.9968 40.1947 57.2475 40.0773 57.4608 39.928C57.6848 39.768 57.8555 39.5813 57.9728 39.368C58.1008 39.144 58.1648 38.8933 58.1648 38.616V37.096H56.2448C55.4235 37.096 54.8261 37.2293 54.4528 37.496C54.0901 37.752 53.9088 38.1093 53.9088 38.568V38.952C53.9088 39.432 54.0795 39.7947 54.4208 40.04C54.7621 40.2853 55.2155 40.408 55.7808 40.408ZM63.6174 33.608H60.6894V32.808H67.4574V33.608H64.5294V41H63.6174V33.608ZM74.7372 41C74.3852 41 74.1292 40.9093 73.9692 40.728C73.8092 40.5467 73.7185 40.3013 73.6972 39.992V39.704H73.6172C73.4359 40.1627 73.1372 40.5253 72.7212 40.792C72.3052 41.0587 71.7772 41.192 71.1372 41.192C70.2732 41.192 69.6065 40.984 69.1372 40.568C68.6679 40.1413 68.4332 39.544 68.4332 38.776C68.4332 38.0507 68.6892 37.4747 69.2012 37.048C69.7239 36.6213 70.5772 36.408 71.7612 36.408H73.6492V35.448C73.6492 34.0933 72.9505 33.416 71.5532 33.416C71.0092 33.416 70.5559 33.5333 70.1932 33.768C69.8305 33.992 69.5372 34.3173 69.3132 34.744L68.7372 34.264C68.9612 33.784 69.3025 33.3893 69.7612 33.08C70.2305 32.7707 70.8385 32.616 71.5852 32.616C72.5452 32.616 73.2812 32.856 73.7932 33.336C74.3052 33.816 74.5612 34.488 74.5612 35.352V40.2H75.6652V41H74.7372ZM71.2652 40.408C71.5959 40.408 71.9052 40.3653 72.1932 40.28C72.4812 40.1947 72.7319 40.0773 72.9452 39.928C73.1692 39.768 73.3399 39.5813 73.4572 39.368C73.5852 39.144 73.6492 38.8933 73.6492 38.616V37.096H71.7292C70.9079 37.096 70.3105 37.2293 69.9372 37.496C69.5745 37.752 69.3932 38.1093 69.3932 38.568V38.952C69.3932 39.432 69.5639 39.7947 69.9052 40.04C70.2465 40.2853 70.6999 40.408 71.2652 40.408ZM79.9479 40.2H80.8439C81.2173 39.624 81.5106 38.9147 81.7239 38.072C81.9373 37.2293 82.0439 36.2747 82.0439 35.208V32.808H87.2439V40.2H88.5399V43.24H87.6919V41H80.7959V43.24H79.9479V40.2ZM86.3319 40.2V33.608H82.9239V35.24C82.9239 36.3707 82.8173 37.352 82.6039 38.184C82.3906 39.016 82.1293 39.688 81.8199 40.2H86.3319ZM90.5739 32.808H91.4859V34.12H91.5339C91.7366 33.6613 92.0459 33.2987 92.4619 33.032C92.8779 32.7547 93.4006 32.616 94.0299 32.616C95.0859 32.616 95.9126 32.9893 96.5099 33.736C97.1073 34.4827 97.4059 35.5387 97.4059 36.904C97.4059 38.2693 97.1073 39.3253 96.5099 40.072C95.9126 40.8187 95.0859 41.192 94.0299 41.192C93.4006 41.192 92.8833 41.0587 92.4779 40.792C92.0726 40.5147 91.7579 40.1467 91.5339 39.688H91.4859V44.2H90.5739V32.808ZM93.8219 40.376C94.6433 40.376 95.2833 40.1147 95.7419 39.592C96.2006 39.0693 96.4299 38.3653 96.4299 37.48V36.328C96.4299 35.4427 96.2006 34.7387 95.7419 34.216C95.2833 33.6933 94.6433 33.432 93.8219 33.432C93.5019 33.432 93.1979 33.48 92.9099 33.576C92.6326 33.6613 92.3873 33.784 92.1739 33.944C91.9606 34.104 91.7899 34.296 91.6619 34.52C91.5446 34.744 91.4859 34.9893 91.4859 35.256V38.504C91.4859 38.792 91.5446 39.0533 91.6619 39.288C91.7899 39.512 91.9606 39.7093 92.1739 39.88C92.3873 40.04 92.6326 40.1627 92.9099 40.248C93.1979 40.3333 93.5019 40.376 93.8219 40.376ZM105.393 41C105.041 41 104.785 40.9093 104.625 40.728C104.465 40.5467 104.375 40.3013 104.353 39.992V39.704H104.273C104.092 40.1627 103.793 40.5253 103.377 40.792C102.961 41.0587 102.433 41.192 101.793 41.192C100.929 41.192 100.263 40.984 99.7934 40.568C99.3241 40.1413 99.0894 39.544 99.0894 38.776C99.0894 38.0507 99.3454 37.4747 99.8574 37.048C100.38 36.6213 101.233 36.408 102.417 36.408H104.305V35.448C104.305 34.0933 103.607 33.416 102.209 33.416C101.665 33.416 101.212 33.5333 100.849 33.768C100.487 33.992 100.193 34.3173 99.9694 34.744L99.3934 34.264C99.6174 33.784 99.9588 33.3893 100.417 33.08C100.887 32.7707 101.495 32.616 102.241 32.616C103.201 32.616 103.937 32.856 104.449 33.336C104.961 33.816 105.217 34.488 105.217 35.352V40.2H106.321V41H105.393ZM101.921 40.408C102.252 40.408 102.561 40.3653 102.849 40.28C103.137 40.1947 103.388 40.0773 103.601 39.928C103.825 39.768 103.996 39.5813 104.113 39.368C104.241 39.144 104.305 38.8933 104.305 38.616V37.096H102.385C101.564 37.096 100.967 37.2293 100.593 37.496C100.231 37.752 100.049 38.1093 100.049 38.568V38.952C100.049 39.432 100.22 39.7947 100.561 40.04C100.903 40.2853 101.356 40.408 101.921 40.408ZM108.199 32.808H109.095V38.12L108.999 39.768H109.063L109.911 38.312L113.719 32.808H114.567V41H113.671V35.688L113.767 34.04H113.703L112.839 35.496L109.031 41H108.199V32.808ZM111.383 31.4C110.828 31.4 110.391 31.272 110.071 31.016C109.751 30.76 109.495 30.4453 109.303 30.072L109.031 29.544L109.831 29.192L110.391 30.408C110.53 30.5147 110.684 30.5947 110.855 30.648C111.026 30.6907 111.202 30.712 111.383 30.712C111.564 30.712 111.74 30.6907 111.911 30.648C112.082 30.5947 112.236 30.5147 112.375 30.408L112.935 29.192L113.735 29.544L113.463 30.072C113.271 30.4453 113.015 30.76 112.695 31.016C112.375 31.272 111.938 31.4 111.383 31.4ZM117.543 32.808H121.495C122.124 32.808 122.615 32.9893 122.967 33.352C123.329 33.7147 123.511 34.216 123.511 34.856C123.511 35.3787 123.383 35.7893 123.127 36.088C122.871 36.3867 122.503 36.5787 122.023 36.664V36.728C122.631 36.792 123.084 36.9947 123.383 37.336C123.681 37.6667 123.831 38.104 123.831 38.648C123.831 38.9787 123.783 39.288 123.687 39.576C123.591 39.864 123.452 40.1147 123.271 40.328C123.089 40.5307 122.865 40.696 122.599 40.824C122.332 40.9413 122.028 41 121.687 41H117.543V32.808ZM121.447 40.232C121.905 40.232 122.252 40.1093 122.487 39.864C122.732 39.608 122.855 39.2827 122.855 38.888V38.472C122.855 38.088 122.727 37.7733 122.471 37.528C122.215 37.272 121.841 37.144 121.351 37.144H118.455V40.232H121.447ZM121.223 36.392C121.66 36.392 121.985 36.28 122.199 36.056C122.423 35.8213 122.535 35.5227 122.535 35.16V34.76C122.535 34.408 122.428 34.1253 122.215 33.912C122.001 33.688 121.692 33.576 121.287 33.576H118.455V36.392H121.223ZM129.346 41.192C128.802 41.192 128.306 41.096 127.858 40.904C127.42 40.712 127.042 40.4347 126.722 40.072C126.412 39.6987 126.172 39.2453 126.002 38.712C125.842 38.1787 125.762 37.576 125.762 36.904C125.762 36.232 125.842 35.6347 126.002 35.112C126.172 34.5787 126.412 34.1307 126.722 33.768C127.042 33.3947 127.42 33.112 127.858 32.92C128.295 32.7173 128.786 32.616 129.33 32.616C129.852 32.616 130.327 32.7173 130.754 32.92C131.18 33.112 131.543 33.384 131.842 33.736C132.14 34.088 132.37 34.5147 132.53 35.016C132.7 35.5067 132.786 36.0507 132.786 36.648V37.08H126.722V37.48C126.722 37.9067 126.78 38.3013 126.898 38.664C127.026 39.016 127.202 39.32 127.426 39.576C127.66 39.832 127.943 40.0347 128.274 40.184C128.604 40.3227 128.978 40.392 129.394 40.392C130.588 40.392 131.415 39.8427 131.874 38.744L132.546 39.192C132.29 39.8 131.884 40.2853 131.33 40.648C130.786 41.0107 130.124 41.192 129.346 41.192ZM129.33 33.384C128.935 33.384 128.578 33.4587 128.258 33.608C127.938 33.7467 127.66 33.944 127.426 34.2C127.202 34.456 127.026 34.7653 126.898 35.128C126.78 35.48 126.722 35.8693 126.722 36.296V36.376H131.794V36.248C131.794 35.8213 131.735 35.432 131.618 35.08C131.5 34.7173 131.33 34.4133 131.106 34.168C130.892 33.9227 130.631 33.7307 130.322 33.592C130.023 33.4533 129.692 33.384 129.33 33.384ZM135.105 32.808H136.017V36.344H140.561V32.808H141.473V41H140.561V37.144H136.017V41H135.105V32.808ZM148.215 32.808H154.375V41H153.463V33.608H149.127V41H148.215V32.808ZM160.267 41.192C159.723 41.192 159.233 41.096 158.795 40.904C158.358 40.712 157.985 40.4347 157.675 40.072C157.366 39.6987 157.126 39.2453 156.955 38.712C156.785 38.1787 156.699 37.576 156.699 36.904C156.699 36.232 156.785 35.6347 156.955 35.112C157.126 34.5787 157.366 34.1307 157.675 33.768C157.985 33.3947 158.358 33.112 158.795 32.92C159.233 32.7173 159.723 32.616 160.267 32.616C160.811 32.616 161.302 32.7173 161.739 32.92C162.177 33.112 162.55 33.3947 162.859 33.768C163.169 34.1307 163.409 34.5787 163.579 35.112C163.75 35.6347 163.835 36.232 163.835 36.904C163.835 37.576 163.75 38.1787 163.579 38.712C163.409 39.2453 163.169 39.6987 162.859 40.072C162.55 40.4347 162.177 40.712 161.739 40.904C161.302 41.096 160.811 41.192 160.267 41.192ZM160.267 40.376C161.067 40.376 161.697 40.1253 162.155 39.624C162.625 39.1227 162.859 38.3867 162.859 37.416V36.392C162.859 35.432 162.625 34.7013 162.155 34.2C161.697 33.688 161.067 33.432 160.267 33.432C159.467 33.432 158.833 33.6827 158.363 34.184C157.905 34.6853 157.675 35.4213 157.675 36.392V37.416C157.675 38.376 157.905 39.112 158.363 39.624C158.833 40.1253 159.467 40.376 160.267 40.376ZM164.76 40.2H165.656C166.03 39.624 166.323 38.9147 166.536 38.072C166.75 37.2293 166.856 36.2747 166.856 35.208V32.808H172.056V40.2H173.352V43.24H172.504V41H165.608V43.24H164.76V40.2ZM171.144 40.2V33.608H167.736V35.24C167.736 36.3707 167.63 37.352 167.416 38.184C167.203 39.016 166.942 39.688 166.632 40.2H171.144ZM174.314 41L177.354 36.872L174.426 32.808H175.498L177.834 36.152H177.882L180.266 32.808H181.29L178.378 36.808L181.37 41H180.298L177.882 37.544H177.85L175.338 41H174.314ZM185.923 41.192C185.379 41.192 184.889 41.096 184.451 40.904C184.014 40.712 183.641 40.4347 183.331 40.072C183.022 39.6987 182.782 39.2453 182.611 38.712C182.441 38.1787 182.355 37.576 182.355 36.904C182.355 36.232 182.441 35.6347 182.611 35.112C182.782 34.5787 183.022 34.1307 183.331 33.768C183.641 33.3947 184.014 33.112 184.451 32.92C184.889 32.7173 185.379 32.616 185.923 32.616C186.467 32.616 186.958 32.7173 187.395 32.92C187.833 33.112 188.206 33.3947 188.515 33.768C188.825 34.1307 189.065 34.5787 189.235 35.112C189.406 35.6347 189.491 36.232 189.491 36.904C189.491 37.576 189.406 38.1787 189.235 38.712C189.065 39.2453 188.825 39.6987 188.515 40.072C188.206 40.4347 187.833 40.712 187.395 40.904C186.958 41.096 186.467 41.192 185.923 41.192ZM185.923 40.376C186.723 40.376 187.353 40.1253 187.811 39.624C188.281 39.1227 188.515 38.3867 188.515 37.416V36.392C188.515 35.432 188.281 34.7013 187.811 34.2C187.353 33.688 186.723 33.432 185.923 33.432C185.123 33.432 184.489 33.6827 184.019 34.184C183.561 34.6853 183.331 35.4213 183.331 36.392V37.416C183.331 38.376 183.561 39.112 184.019 39.624C184.489 40.1253 185.123 40.376 185.923 40.376ZM190.417 40.2H191.313C191.686 39.624 191.979 38.9147 192.193 38.072C192.406 37.2293 192.513 36.2747 192.513 35.208V32.808H197.713V40.2H199.009V43.24H198.161V41H191.265V43.24H190.417V40.2ZM196.801 40.2V33.608H193.393V35.24C193.393 36.3707 193.286 37.352 193.073 38.184C192.859 39.016 192.598 39.688 192.289 40.2H196.801ZM202.025 39.528C202.292 39.528 202.484 39.5973 202.601 39.736C202.729 39.8747 202.793 40.0507 202.793 40.264V40.472C202.793 40.92 202.665 41.3947 202.409 41.896C202.164 42.408 201.833 42.8453 201.417 43.208H200.649C201.001 42.8453 201.268 42.4933 201.449 42.152C201.641 41.8107 201.769 41.464 201.833 41.112C201.62 41.0907 201.471 41.0213 201.385 40.904C201.3 40.776 201.257 40.6267 201.257 40.456V40.264C201.257 40.0507 201.316 39.8747 201.433 39.736C201.561 39.5973 201.759 39.528 202.025 39.528ZM208.539 40.2H209.483L210.731 37.528C210.848 37.272 210.971 37.0907 211.099 36.984C211.237 36.8667 211.392 36.792 211.563 36.76V36.696C211.392 36.6427 211.243 36.5627 211.115 36.456C210.997 36.3493 210.88 36.1787 210.763 35.944L209.595 33.608H208.651V32.808H209.419C209.899 32.808 210.261 33.0587 210.507 33.56L211.899 36.344H213.499V32.808H214.411V36.344H216.011L217.403 33.56C217.648 33.0587 218.011 32.808 218.491 32.808H219.259V33.608H218.315L217.147 35.944C217.029 36.1787 216.907 36.3493 216.779 36.456C216.661 36.5627 216.517 36.6427 216.347 36.696V36.76C216.517 36.792 216.667 36.8667 216.795 36.984C216.933 37.0907 217.061 37.272 217.179 37.528L218.427 40.2H219.371V41H218.475C218.261 41 218.069 40.9467 217.899 40.84C217.739 40.7227 217.589 40.5147 217.451 40.216L216.011 37.128H214.411V41H213.499V37.128H211.899L210.459 40.216C210.32 40.5147 210.165 40.7227 209.995 40.84C209.835 40.9467 209.648 41 209.435 41H208.539V40.2ZM221.511 32.808H222.743L225.527 37.496H225.591L228.359 32.808H229.575V41H228.679V33.912H228.599L228.087 34.824L225.543 39.08L222.999 34.824L222.487 33.912H222.407V41H221.511V32.808ZM232.558 32.808H233.454V38.12L233.358 39.768H233.422L234.27 38.312L238.078 32.808H238.926V41H238.03V35.688L238.126 34.04H238.062L237.198 35.496L233.39 41H232.558V32.808ZM242.35 38.104L242.094 33.576V29.832H243.086V33.576L242.814 38.104H242.35ZM242.59 41.144C242.323 41.144 242.126 41.08 241.998 40.952C241.881 40.8133 241.822 40.6373 241.822 40.424V40.248C241.822 40.0347 241.881 39.864 241.998 39.736C242.126 39.5973 242.323 39.528 242.59 39.528C242.846 39.528 243.038 39.5973 243.166 39.736C243.294 39.864 243.358 40.0347 243.358 40.248V40.424C243.358 40.6373 243.294 40.8133 243.166 40.952C243.038 41.08 242.846 41.144 242.59 41.144Z" fill="#717375"/>
<path d="M123.052 22.1238C123.664 22.0872 130.43 15.2446 130.88 14.754C131.926 13.6148 132.911 12.3123 133.675 10.9643C134.655 9.23498 136.007 7.58863 136.953 5.75415" stroke="#1F2021" stroke-linecap="round" stroke-linejoin="round"/>
<path d="M137.22 5.55948C137.264 6.7803 137.446 7.95275 137.604 9.16186" stroke="#1F2021" stroke-linecap="round" stroke-linejoin="round"/>
<path d="M136.989 5.52356C135.629 5.31167 134.524 5.41588 133.192 5.64072" stroke="#1F2021" stroke-linecap="round" stroke-linejoin="round"/>
</svg>
